<svg xmlns="http://www.w3.org/2000/svg" xmlns:xlink="http://www.w3.org/1999/xlink"><symbol id="supergym-desktop" viewBox="0 0 119 20"><g fill="none">
<path d="M9.31836 14.1377C9.31836 13.8076 9.28874 13.5072 9.22949 13.2363C9.17025 12.9655 9.04329 12.7158 8.84863 12.4873C8.66243 12.2588 8.38737 12.0303 8.02344 11.8018C7.66797 11.5732 7.20247 11.3363 6.62695 11.0908C5.94141 10.8031 5.27702 10.4984 4.63379 10.1768C3.99056 9.84668 3.41081 9.46582 2.89453 9.03418C2.37826 8.60254 1.96777 8.09473 1.66309 7.51074C1.36686 6.91829 1.21875 6.22428 1.21875 5.42871C1.21875 4.65007 1.3584 3.94336 1.6377 3.30859C1.92546 2.67383 2.33171 2.13216 2.85645 1.68359C3.38118 1.22656 3.99479 0.875326 4.69727 0.629883C5.4082 0.38444 6.19954 0.261719 7.07129 0.261719C8.25618 0.261719 9.28027 0.507161 10.1436 0.998047C11.0153 1.48893 11.6882 2.16178 12.1621 3.0166C12.6445 3.87142 12.8857 4.85319 12.8857 5.96191H9.17871C9.17871 5.43717 9.10254 4.97591 8.9502 4.57812C8.80632 4.17188 8.57357 3.85449 8.25195 3.62598C7.93034 3.39746 7.51562 3.2832 7.00781 3.2832C6.53385 3.2832 6.1403 3.38053 5.82715 3.5752C5.52246 3.76139 5.29395 4.01953 5.1416 4.34961C4.99772 4.67122 4.92578 5.03516 4.92578 5.44141C4.92578 5.74609 4.99772 6.02116 5.1416 6.2666C5.29395 6.50358 5.5013 6.7194 5.76367 6.91406C6.02604 7.10026 6.33496 7.28223 6.69043 7.45996C7.05436 7.6377 7.45215 7.8112 7.88379 7.98047C8.72168 8.31055 9.46224 8.67448 10.1055 9.07227C10.7487 9.46159 11.2861 9.90169 11.7178 10.3926C12.1494 10.875 12.4753 11.4209 12.6953 12.0303C12.9154 12.6396 13.0254 13.3337 13.0254 14.1123C13.0254 14.8825 12.89 15.585 12.6191 16.2197C12.3568 16.846 11.9717 17.3877 11.4639 17.8447C10.9561 18.2933 10.3424 18.6403 9.62305 18.8857C8.91211 19.1312 8.11654 19.2539 7.23633 19.2539C6.38151 19.2539 5.57324 19.1354 4.81152 18.8984C4.0498 18.653 3.37695 18.2848 2.79297 17.7939C2.21745 17.2946 1.76465 16.6641 1.43457 15.9023C1.10449 15.1322 0.939453 14.2223 0.939453 13.1729H4.65918C4.65918 13.7314 4.71419 14.2096 4.82422 14.6074C4.93424 14.9967 5.10352 15.3099 5.33203 15.5469C5.56055 15.7754 5.83984 15.9489 6.16992 16.0674C6.50846 16.1774 6.89355 16.2324 7.3252 16.2324C7.81608 16.2324 8.2054 16.1393 8.49316 15.9531C8.78939 15.7669 9.00098 15.5173 9.12793 15.2041C9.25488 14.891 9.31836 14.5355 9.31836 14.1377ZM23.8418 0.515625H27.5488V13.2109C27.5488 14.6328 27.2865 15.7923 26.7617 16.6895C26.2454 17.5781 25.5303 18.2298 24.6162 18.6445C23.7021 19.0508 22.6569 19.2539 21.4805 19.2539C20.2956 19.2539 19.2419 19.0508 18.3193 18.6445C17.3968 18.2298 16.6774 17.5781 16.1611 16.6895C15.6533 15.7923 15.3994 14.6328 15.3994 13.2109V0.515625H19.1064V13.2109C19.1064 14.015 19.1953 14.6328 19.373 15.0645C19.5592 15.4961 19.8258 15.7923 20.1729 15.9531C20.5283 16.1055 20.9642 16.1816 21.4805 16.1816C22.0052 16.1816 22.4368 16.1055 22.7754 15.9531C23.1224 15.7923 23.3848 15.4961 23.5625 15.0645C23.7487 14.6328 23.8418 14.015 23.8418 13.2109V0.515625ZM36.6895 12.4873H32.9062V9.40234H36.6895C37.2142 9.40234 37.6416 9.28385 37.9717 9.04688C38.3102 8.8099 38.5557 8.48405 38.708 8.06934C38.8604 7.64616 38.9365 7.1722 38.9365 6.64746C38.9365 6.11426 38.8561 5.61914 38.6953 5.16211C38.543 4.69661 38.3018 4.31999 37.9717 4.03223C37.6501 3.74447 37.2227 3.60059 36.6895 3.60059H34.0996V19H30.3926V0.515625H36.6895C37.9336 0.515625 39.0042 0.777995 39.9014 1.30273C40.7985 1.82747 41.484 2.55111 41.958 3.47363C42.4404 4.3877 42.6816 5.43717 42.6816 6.62207C42.6816 7.81543 42.4404 8.85221 41.958 9.73242C41.484 10.6042 40.7985 11.2812 39.9014 11.7637C39.0042 12.2461 37.9336 12.4873 36.6895 12.4873ZM55.7705 15.9277V19H47.7344V15.9277H55.7705ZM48.8896 0.515625V19H45.1699V0.515625H48.8896ZM54.6914 8.00586V10.9893H47.7344V8.00586H54.6914ZM55.7451 0.515625V3.60059H47.7344V0.515625H55.7451ZM57.9541 0.515625H63.8828C65.1185 0.515625 66.1722 0.727214 67.0439 1.15039C67.9157 1.57357 68.5843 2.19987 69.0498 3.0293C69.5153 3.85872 69.748 4.88281 69.748 6.10156C69.748 7.10026 69.6126 7.95508 69.3418 8.66602C69.071 9.36849 68.6859 9.95671 68.1865 10.4307C67.6872 10.8962 67.0905 11.2686 66.3965 11.5479L65.2666 12.2207H60.4551L60.4424 9.13574H63.7812C64.2891 9.13574 64.708 9.02572 65.0381 8.80566C65.3766 8.57715 65.6263 8.25977 65.7871 7.85352C65.9564 7.4388 66.041 6.95638 66.041 6.40625C66.041 5.82227 65.9648 5.32292 65.8125 4.9082C65.6686 4.48503 65.4359 4.16341 65.1143 3.94336C64.8011 3.71484 64.3906 3.60059 63.8828 3.60059H61.6738V19H57.9541V0.515625ZM66.3457 19L62.9561 10.7607L66.8535 10.748L70.3193 18.8223V19H66.3457ZM84.8936 9.28809V16.9053C84.6312 17.1846 84.2461 17.5104 83.7383 17.8828C83.2389 18.2467 82.583 18.5684 81.7705 18.8477C80.9665 19.1185 79.9847 19.2539 78.8252 19.2539C77.8011 19.2539 76.8701 19.0931 76.0322 18.7715C75.2028 18.4499 74.4876 17.9632 73.8867 17.3115C73.2943 16.6514 72.8415 15.8304 72.5283 14.8486C72.2152 13.8584 72.0586 12.6862 72.0586 11.332V8.18359C72.0586 6.84635 72.2067 5.68262 72.5029 4.69238C72.8076 3.69368 73.2477 2.86426 73.8232 2.2041C74.3988 1.54395 75.0843 1.05306 75.8799 0.731445C76.6839 0.409831 77.5895 0.249023 78.5967 0.249023C79.9847 0.249023 81.123 0.481771 82.0117 0.947266C82.9089 1.41276 83.5859 2.10254 84.043 3.0166C84.5085 3.93066 84.7878 5.05208 84.8809 6.38086H81.2881C81.2288 5.60221 81.0977 4.99284 80.8945 4.55273C80.6999 4.11263 80.4248 3.79948 80.0693 3.61328C79.7139 3.41862 79.2526 3.32129 78.6855 3.32129C78.1947 3.32129 77.7673 3.41016 77.4033 3.58789C77.0394 3.75716 76.7347 4.03646 76.4893 4.42578C76.2438 4.8151 76.0618 5.31445 75.9434 5.92383C75.8249 6.5332 75.7656 7.27799 75.7656 8.1582V11.332C75.7656 12.2038 75.8333 12.9486 75.9688 13.5664C76.1042 14.1842 76.3031 14.6878 76.5654 15.0771C76.8363 15.4665 77.1748 15.75 77.5811 15.9277C77.9958 16.097 78.4824 16.1816 79.041 16.1816C79.4896 16.1816 79.8493 16.1351 80.1201 16.042C80.391 15.9489 80.6068 15.8516 80.7676 15.75C80.9368 15.64 81.0765 15.5553 81.1865 15.4961V12.0938H78.5332V9.28809H84.8936ZM90.3145 0.515625L93.1328 8.84375L95.9258 0.515625H99.9756L94.999 12.2842V19H91.2539V12.2842L86.2773 0.515625H90.3145ZM103.01 0.515625H106.272L110.043 13.1602L113.801 0.515625H116.683L111.427 19H108.646L103.01 0.515625ZM101.689 0.515625H104.8L105.282 12.7031V19H101.689V0.515625ZM115.261 0.515625H118.384V19H114.804V12.7031L115.261 0.515625Z" fill="white"/>
</g></symbol><symbol id="supergym-mobile" viewBox="0 0 101 17"><g fill="none">
<path d="M7.88477 11.8857C7.88477 11.6064 7.8597 11.3522 7.80957 11.123C7.75944 10.8939 7.65202 10.6826 7.4873 10.4893C7.32975 10.2959 7.09701 10.1025 6.78906 9.90918C6.48828 9.71582 6.0944 9.5153 5.60742 9.30762C5.02734 9.06413 4.46517 8.80632 3.9209 8.53418C3.37663 8.25488 2.88607 7.93262 2.44922 7.56738C2.01237 7.20215 1.66504 6.77246 1.40723 6.27832C1.15658 5.77702 1.03125 5.18978 1.03125 4.5166C1.03125 3.85775 1.14941 3.25977 1.38574 2.72266C1.62923 2.18555 1.97298 1.72721 2.41699 1.34766C2.861 0.960938 3.38021 0.663737 3.97461 0.456055C4.57617 0.248372 5.24577 0.144531 5.9834 0.144531C6.986 0.144531 7.85254 0.352214 8.58301 0.767578C9.32064 1.18294 9.88997 1.75228 10.291 2.47559C10.6992 3.19889 10.9033 4.02962 10.9033 4.96777H7.7666C7.7666 4.52376 7.70215 4.13346 7.57324 3.79688C7.4515 3.45312 7.25456 3.18457 6.98242 2.99121C6.71029 2.79785 6.35938 2.70117 5.92969 2.70117C5.52865 2.70117 5.19564 2.78353 4.93066 2.94824C4.67285 3.10579 4.47949 3.32422 4.35059 3.60352C4.22884 3.87565 4.16797 4.18359 4.16797 4.52734C4.16797 4.78516 4.22884 5.0179 4.35059 5.22559C4.47949 5.42611 4.65495 5.60872 4.87695 5.77344C5.09896 5.93099 5.36035 6.08496 5.66113 6.23535C5.96908 6.38574 6.30566 6.53255 6.6709 6.67578C7.37988 6.95508 8.00651 7.26302 8.55078 7.59961C9.09505 7.92904 9.5498 8.30143 9.91504 8.7168C10.2803 9.125 10.556 9.58691 10.7422 10.1025C10.9284 10.6182 11.0215 11.2054 11.0215 11.8643C11.0215 12.516 10.9069 13.1104 10.6777 13.6475C10.4557 14.1774 10.1299 14.6357 9.7002 15.0225C9.27051 15.402 8.7513 15.6956 8.14258 15.9033C7.54102 16.111 6.86784 16.2148 6.12305 16.2148C5.39974 16.2148 4.71582 16.1146 4.07129 15.9141C3.42676 15.7064 2.85742 15.3949 2.36328 14.9795C1.8763 14.557 1.49316 14.0234 1.21387 13.3789C0.93457 12.7272 0.794922 11.9574 0.794922 11.0693H3.94238C3.94238 11.542 3.98893 11.9466 4.08203 12.2832C4.17513 12.6126 4.31836 12.8776 4.51172 13.0781C4.70508 13.2715 4.94141 13.4183 5.2207 13.5186C5.50716 13.6117 5.83301 13.6582 6.19824 13.6582C6.61361 13.6582 6.94303 13.5794 7.18652 13.4219C7.43717 13.2643 7.61621 13.0531 7.72363 12.7881C7.83105 12.5231 7.88477 12.2223 7.88477 11.8857ZM20.1738 0.359375H23.3105V11.1016C23.3105 12.3047 23.0885 13.2858 22.6445 14.0449C22.2077 14.7969 21.6025 15.3483 20.8291 15.6992C20.0557 16.043 19.1712 16.2148 18.1758 16.2148C17.1732 16.2148 16.2816 16.043 15.501 15.6992C14.7204 15.3483 14.1117 14.7969 13.6748 14.0449C13.2451 13.2858 13.0303 12.3047 13.0303 11.1016V0.359375H16.167V11.1016C16.167 11.7819 16.2422 12.3047 16.3926 12.6699C16.5501 13.0352 16.7757 13.2858 17.0693 13.4219C17.3701 13.5508 17.7389 13.6152 18.1758 13.6152C18.6198 13.6152 18.985 13.5508 19.2715 13.4219C19.5651 13.2858 19.7871 13.0352 19.9375 12.6699C20.0951 12.3047 20.1738 11.7819 20.1738 11.1016V0.359375ZM31.0449 10.4893H27.8438V7.87891H31.0449C31.4889 7.87891 31.8506 7.77865 32.1299 7.57812C32.4163 7.3776 32.624 7.10189 32.7529 6.75098C32.8818 6.3929 32.9463 5.99186 32.9463 5.54785C32.9463 5.09668 32.8783 4.67773 32.7422 4.29102C32.6133 3.89714 32.4092 3.57845 32.1299 3.33496C31.8577 3.09147 31.4961 2.96973 31.0449 2.96973H28.8535V16H25.7168V0.359375H31.0449C32.0977 0.359375 33.0036 0.58138 33.7627 1.02539C34.5218 1.4694 35.1019 2.08171 35.5029 2.8623C35.9111 3.63574 36.1152 4.52376 36.1152 5.52637C36.1152 6.53613 35.9111 7.41341 35.5029 8.1582C35.1019 8.89583 34.5218 9.46875 33.7627 9.87695C33.0036 10.2852 32.0977 10.4893 31.0449 10.4893ZM47.1904 13.4004V16H40.3906V13.4004H47.1904ZM41.3682 0.359375V16H38.2207V0.359375H41.3682ZM46.2773 6.69727V9.22168H40.3906V6.69727H46.2773ZM47.1689 0.359375V2.96973H40.3906V0.359375H47.1689ZM49.0381 0.359375H54.0547C55.1003 0.359375 55.9919 0.538411 56.7295 0.896484C57.4671 1.25456 58.0329 1.78451 58.4268 2.48633C58.8206 3.18815 59.0176 4.05469 59.0176 5.08594C59.0176 5.93099 58.903 6.6543 58.6738 7.25586C58.4447 7.85026 58.1188 8.34798 57.6963 8.74902C57.2738 9.1429 56.7689 9.45801 56.1816 9.69434L55.2256 10.2637H51.1543L51.1436 7.65332H53.9688C54.3984 7.65332 54.7529 7.56022 55.0322 7.37402C55.3187 7.18066 55.5299 6.91211 55.666 6.56836C55.8092 6.21745 55.8809 5.80924 55.8809 5.34375C55.8809 4.84961 55.8164 4.42708 55.6875 4.07617C55.5658 3.7181 55.3688 3.44596 55.0967 3.25977C54.8317 3.06641 54.4844 2.96973 54.0547 2.96973H52.1855V16H49.0381V0.359375ZM56.1387 16L53.2705 9.02832L56.5684 9.01758L59.501 15.8496V16H56.1387ZM71.833 7.78223V14.2275C71.611 14.4639 71.2852 14.7396 70.8555 15.0547C70.4329 15.3626 69.8779 15.6348 69.1904 15.8711C68.5101 16.1003 67.6794 16.2148 66.6982 16.2148C65.8317 16.2148 65.0439 16.0788 64.335 15.8066C63.6331 15.5345 63.028 15.1227 62.5195 14.5713C62.0182 14.0127 61.6351 13.318 61.3701 12.4873C61.1051 11.6494 60.9727 10.6576 60.9727 9.51172V6.84766C60.9727 5.71615 61.098 4.73145 61.3486 3.89355C61.6064 3.0485 61.9788 2.34668 62.4658 1.78809C62.9528 1.22949 63.5329 0.814128 64.2061 0.541992C64.8864 0.269857 65.6527 0.133789 66.5049 0.133789C67.6794 0.133789 68.6426 0.330729 69.3945 0.724609C70.1536 1.11849 70.7266 1.70215 71.1133 2.47559C71.5072 3.24902 71.7435 4.19792 71.8223 5.32227H68.7822C68.7321 4.66341 68.6211 4.14779 68.4492 3.77539C68.2845 3.40299 68.0518 3.13802 67.751 2.98047C67.4502 2.81576 67.0599 2.7334 66.5801 2.7334C66.1647 2.7334 65.8031 2.80859 65.4951 2.95898C65.1872 3.10221 64.9294 3.33854 64.7217 3.66797C64.514 3.9974 64.36 4.41992 64.2598 4.93555C64.1595 5.45117 64.1094 6.08138 64.1094 6.82617V9.51172C64.1094 10.2493 64.1667 10.8796 64.2812 11.4023C64.3958 11.9251 64.5641 12.3512 64.7861 12.6807C65.0153 13.0101 65.3018 13.25 65.6455 13.4004C65.9964 13.5436 66.4082 13.6152 66.8809 13.6152C67.2604 13.6152 67.5648 13.5758 67.7939 13.4971C68.0231 13.4183 68.2057 13.3359 68.3418 13.25C68.485 13.1569 68.6032 13.0853 68.6963 13.0352V10.1562H66.4512V7.78223H71.833ZM76.4199 0.359375L78.8047 7.40625L81.168 0.359375H84.5947L80.3838 10.3174V16H77.2148V10.3174L73.0039 0.359375H76.4199ZM87.1621 0.359375H89.9229L93.1133 11.0586L96.293 0.359375H98.7314L94.2842 16H91.9316L87.1621 0.359375ZM86.0449 0.359375H88.6768L89.085 10.6719V16H86.0449V0.359375ZM97.5283 0.359375H100.171V16H97.1416V10.6719L97.5283 0.359375Z" fill="white"/>
</g></symbol><symbol id="supergym-tablet" viewBox="0 0 110 19"><g fill="none">
<path d="M8.60156 13.5117C8.60156 13.207 8.57422 12.9297 8.51953 12.6797C8.46484 12.4297 8.34766 12.1992 8.16797 11.9883C7.99609 11.7773 7.74219 11.5664 7.40625 11.3555C7.07812 11.1445 6.64844 10.9258 6.11719 10.6992C5.48438 10.4336 4.87109 10.1523 4.27734 9.85547C3.68359 9.55078 3.14844 9.19922 2.67188 8.80078C2.19531 8.40234 1.81641 7.93359 1.53516 7.39453C1.26172 6.84766 1.125 6.20703 1.125 5.47266C1.125 4.75391 1.25391 4.10156 1.51172 3.51562C1.77734 2.92969 2.15234 2.42969 2.63672 2.01562C3.12109 1.59375 3.6875 1.26953 4.33594 1.04297C4.99219 0.816406 5.72266 0.703125 6.52734 0.703125C7.62109 0.703125 8.56641 0.929687 9.36328 1.38281C10.168 1.83594 10.7891 2.45703 11.2266 3.24609C11.6719 4.03516 11.8945 4.94141 11.8945 5.96484H8.47266C8.47266 5.48047 8.40234 5.05469 8.26172 4.6875C8.12891 4.3125 7.91406 4.01953 7.61719 3.80859C7.32031 3.59766 6.9375 3.49219 6.46875 3.49219C6.03125 3.49219 5.66797 3.58203 5.37891 3.76172C5.09766 3.93359 4.88672 4.17188 4.74609 4.47656C4.61328 4.77344 4.54688 5.10938 4.54688 5.48438C4.54688 5.76562 4.61328 6.01953 4.74609 6.24609C4.88672 6.46484 5.07812 6.66406 5.32031 6.84375C5.5625 7.01562 5.84766 7.18359 6.17578 7.34766C6.51172 7.51172 6.87891 7.67188 7.27734 7.82812C8.05078 8.13281 8.73438 8.46875 9.32812 8.83594C9.92188 9.19531 10.418 9.60156 10.8164 10.0547C11.2148 10.5 11.5156 11.0039 11.7188 11.5664C11.9219 12.1289 12.0234 12.7695 12.0234 13.4883C12.0234 14.1992 11.8984 14.8477 11.6484 15.4336C11.4062 16.0117 11.0508 16.5117 10.582 16.9336C10.1133 17.3477 9.54688 17.668 8.88281 17.8945C8.22656 18.1211 7.49219 18.2344 6.67969 18.2344C5.89062 18.2344 5.14453 18.125 4.44141 17.9062C3.73828 17.6797 3.11719 17.3398 2.57812 16.8867C2.04688 16.4258 1.62891 15.8438 1.32422 15.1406C1.01953 14.4297 0.867188 13.5898 0.867188 12.6211H4.30078C4.30078 13.1367 4.35156 13.5781 4.45312 13.9453C4.55469 14.3047 4.71094 14.5938 4.92188 14.8125C5.13281 15.0234 5.39062 15.1836 5.69531 15.293C6.00781 15.3945 6.36328 15.4453 6.76172 15.4453C7.21484 15.4453 7.57422 15.3594 7.83984 15.1875C8.11328 15.0156 8.30859 14.7852 8.42578 14.4961C8.54297 14.207 8.60156 13.8789 8.60156 13.5117ZM22.0078 0.9375H25.4297V12.6562C25.4297 13.9688 25.1875 15.0391 24.7031 15.8672C24.2266 16.6875 23.5664 17.2891 22.7227 17.6719C21.8789 18.0469 20.9141 18.2344 19.8281 18.2344C18.7344 18.2344 17.7617 18.0469 16.9102 17.6719C16.0586 17.2891 15.3945 16.6875 14.918 15.8672C14.4492 15.0391 14.2148 13.9688 14.2148 12.6562V0.9375H17.6367V12.6562C17.6367 13.3984 17.7188 13.9688 17.8828 14.3672C18.0547 14.7656 18.3008 15.0391 18.6211 15.1875C18.9492 15.3281 19.3516 15.3984 19.8281 15.3984C20.3125 15.3984 20.7109 15.3281 21.0234 15.1875C21.3438 15.0391 21.5859 14.7656 21.75 14.3672C21.9219 13.9688 22.0078 13.3984 22.0078 12.6562V0.9375ZM33.8672 11.9883H30.375V9.14062H33.8672C34.3516 9.14062 34.7461 9.03125 35.0508 8.8125C35.3633 8.59375 35.5898 8.29297 35.7305 7.91016C35.8711 7.51953 35.9414 7.08203 35.9414 6.59766C35.9414 6.10547 35.8672 5.64844 35.7188 5.22656C35.5781 4.79687 35.3555 4.44922 35.0508 4.18359C34.7539 3.91797 34.3594 3.78516 33.8672 3.78516H31.4766V18H28.0547V0.9375H33.8672C35.0156 0.9375 36.0039 1.17969 36.832 1.66406C37.6602 2.14844 38.293 2.81641 38.7305 3.66797C39.1758 4.51172 39.3984 5.48047 39.3984 6.57422C39.3984 7.67578 39.1758 8.63281 38.7305 9.44531C38.293 10.25 37.6602 10.875 36.832 11.3203C36.0039 11.7656 35.0156 11.9883 33.8672 11.9883ZM51.4805 15.1641V18H44.0625V15.1641H51.4805ZM45.1289 0.9375V18H41.6953V0.9375H45.1289ZM50.4844 7.85156V10.6055H44.0625V7.85156H50.4844ZM51.457 0.9375V3.78516H44.0625V0.9375H51.457ZM53.4961 0.9375H58.9688C60.1094 0.9375 61.082 1.13281 61.8867 1.52344C62.6914 1.91406 63.3086 2.49219 63.7383 3.25781C64.168 4.02344 64.3828 4.96875 64.3828 6.09375C64.3828 7.01562 64.2578 7.80469 64.0078 8.46094C63.7578 9.10938 63.4023 9.65234 62.9414 10.0898C62.4805 10.5195 61.9297 10.8633 61.2891 11.1211L60.2461 11.7422H55.8047L55.793 8.89453H58.875C59.3438 8.89453 59.7305 8.79297 60.0352 8.58984C60.3477 8.37891 60.5781 8.08594 60.7266 7.71094C60.8828 7.32812 60.9609 6.88281 60.9609 6.375C60.9609 5.83594 60.8906 5.375 60.75 4.99219C60.6172 4.60156 60.4023 4.30469 60.1055 4.10156C59.8164 3.89062 59.4375 3.78516 58.9688 3.78516H56.9297V18H53.4961V0.9375ZM61.2422 18L58.1133 10.3945L61.7109 10.3828L64.9102 17.8359V18H61.2422ZM78.3633 9.03516V16.0664C78.1211 16.3242 77.7656 16.625 77.2969 16.9688C76.8359 17.3047 76.2305 17.6016 75.4805 17.8594C74.7383 18.1094 73.832 18.2344 72.7617 18.2344C71.8164 18.2344 70.957 18.0859 70.1836 17.7891C69.418 17.4922 68.7578 17.043 68.2031 16.4414C67.6562 15.832 67.2383 15.0742 66.9492 14.168C66.6602 13.2539 66.5156 12.1719 66.5156 10.9219V8.01562C66.5156 6.78125 66.6523 5.70703 66.9258 4.79297C67.207 3.87109 67.6133 3.10547 68.1445 2.49609C68.6758 1.88672 69.3086 1.43359 70.043 1.13672C70.7852 0.839844 71.6211 0.691406 72.5508 0.691406C73.832 0.691406 74.8828 0.90625 75.7031 1.33594C76.5312 1.76563 77.1562 2.40234 77.5781 3.24609C78.0078 4.08984 78.2656 5.125 78.3516 6.35156H75.0352C74.9805 5.63281 74.8594 5.07031 74.6719 4.66406C74.4922 4.25781 74.2383 3.96875 73.9102 3.79688C73.582 3.61719 73.1562 3.52734 72.6328 3.52734C72.1797 3.52734 71.7852 3.60938 71.4492 3.77344C71.1133 3.92969 70.832 4.1875 70.6055 4.54688C70.3789 4.90625 70.2109 5.36719 70.1016 5.92969C69.9922 6.49219 69.9375 7.17969 69.9375 7.99219V10.9219C69.9375 11.7266 70 12.4141 70.125 12.9844C70.25 13.5547 70.4336 14.0195 70.6758 14.3789C70.9258 14.7383 71.2383 15 71.6133 15.1641C71.9961 15.3203 72.4453 15.3984 72.9609 15.3984C73.375 15.3984 73.707 15.3555 73.957 15.2695C74.207 15.1836 74.4062 15.0938 74.5547 15C74.7109 14.8984 74.8398 14.8203 74.9414 14.7656V11.625H72.4922V9.03516H78.3633ZM83.3672 0.9375L85.9688 8.625L88.5469 0.9375H92.2852L87.6914 11.8008V18H84.2344V11.8008L79.6406 0.9375H83.3672ZM95.0859 0.9375H98.0977L101.578 12.6094L105.047 0.9375H107.707L102.855 18H100.289L95.0859 0.9375ZM93.8672 0.9375H96.7383L97.1836 12.1875V18H93.8672V0.9375ZM106.395 0.9375H109.277V18H105.973V12.1875L106.395 0.9375Z" fill="white"/>
</g></symbol></svg>