<svg xmlns="http://www.w3.org/2000/svg" xmlns:xlink="http://www.w3.org/1999/xlink"><symbol id="ok" viewBox="0 0 22 22">
<path d="M11 3.32798C12.3229 3.32798 13.3988 4.38262 13.3988 5.67944C13.3988 6.97235 12.3229 8.02699 11 8.02699C9.67708 8.02699 8.60121 6.97235 8.60121 5.67944C8.60121 4.38262 9.67708 3.32798 11 3.32798ZM11 11.355C14.1957 11.355 16.7938 8.8082 16.7938 5.67944C16.7938 2.54676 14.1957 0 11 0C7.80427 0 5.21023 2.54676 5.21023 5.67944C5.21023 8.8082 7.80427 11.355 11 11.355ZM13.343 15.9876C14.5225 15.722 15.6581 15.2649 16.7061 14.6204C17.499 14.1322 17.7381 13.1049 17.24 12.3276C16.738 11.5464 15.694 11.312 14.897 11.8042C12.5261 13.265 9.47386 13.265 7.09898 11.8042C6.30603 11.312 5.25805 11.5464 4.75996 12.3276C4.26188 13.1049 4.50096 14.1322 5.29391 14.6204C6.34189 15.2649 7.47753 15.722 8.657 15.9876L5.41744 19.1593C4.75598 19.8077 4.75598 20.8624 5.41744 21.5108C5.75215 21.835 6.1825 21.999 6.61683 21.999C7.05116 21.999 7.4855 21.835 7.82021 21.5108L11 18.3937L14.1838 21.5108C14.8452 22.1631 15.9171 22.1631 16.5826 21.5108C17.244 20.8624 17.244 19.8077 16.5826 19.1593L13.343 15.9876Z"/>
</symbol><symbol id="reddit" viewBox="0 0 22 22">
<path d="M12.9453 0.5C12.304 0.5 11.7021 0.84161 11.3161 1.33425C10.9301 1.82688 10.7173 2.4274 10.5623 3.06027C10.3161 4.07791 10.2401 5.20702 10.2219 6.22466C8.41944 6.35051 6.78722 6.91147 5.43159 7.77808C4.88143 7.29264 4.21882 7.02295 3.58356 7.03014C2.86015 7.03733 2.17322 7.36455 1.66258 8.03699C0.686888 9.32072 0.799351 11.4207 1.93005 12.6685C1.86015 13.0533 1.80847 13.4488 1.80847 13.8479C1.80847 18.0767 5.92399 21.5 11 21.5C16.076 21.5 20.1915 18.0731 20.1915 13.8479C20.1915 13.4488 20.1399 13.0533 20.0699 12.6685C21.2006 11.4207 21.3131 9.32072 20.3374 8.03699C19.8268 7.36455 19.1399 7.03733 18.4164 7.03014C17.7812 7.02295 17.1186 7.29264 16.5684 7.77808C15.2189 6.91507 13.5958 6.35411 11.8024 6.22466C11.8268 5.28613 11.8906 4.31164 12.0699 3.57808C12.1824 3.11781 12.3161 2.78339 12.459 2.6C12.6018 2.41661 12.7052 2.3411 12.9453 2.3411C13.4651 2.3411 13.5319 2.51729 13.845 2.94521C14.0031 3.16096 14.1854 3.43065 14.4772 3.69315C14.769 3.95565 15.2006 4.18219 15.6687 4.18219V2.3411C15.538 2.3411 15.5137 2.3375 15.4256 2.25479C15.3374 2.17209 15.2158 1.98151 15.0365 1.73699C14.6778 1.24435 13.9818 0.5 12.9453 0.5ZM18.0031 0.672603C16.7933 0.672603 15.8146 1.83048 15.8146 3.26164C15.8146 4.69281 16.7933 5.85069 18.0031 5.85069C19.2128 5.85069 20.1915 4.69281 20.1915 3.26164C20.1915 1.83048 19.2128 0.672603 18.0031 0.672603ZM18.0031 1.59315C18.7812 1.59315 19.4134 2.3411 19.4134 3.26164C19.4134 4.18219 18.7812 4.93014 18.0031 4.93014C17.225 4.93014 16.5927 4.18219 16.5927 3.26164C16.5927 2.3411 17.225 1.59315 18.0031 1.59315ZM11 7.66301C15.307 7.66301 18.9514 10.5002 18.9514 13.8479C18.9514 17.1993 15.307 20.0329 11 20.0329C6.69299 20.0329 3.0486 17.1993 3.0486 13.8479C3.0486 10.5002 6.69299 7.66301 11 7.66301ZM3.60787 8.49726C3.82368 8.50086 4.0486 8.55839 4.26441 8.66986C3.48325 9.37106 2.86319 10.1765 2.44069 11.0863C2.1489 10.3743 2.22793 9.48613 2.58659 9.01507C2.84799 8.66986 3.20969 8.49366 3.60787 8.49726ZM18.3921 8.49726C18.7903 8.49366 19.152 8.66986 19.4134 9.01507C19.7721 9.48613 19.8511 10.3743 19.5593 11.0863C19.1368 10.1765 18.5167 9.37106 17.7356 8.66986C17.9514 8.55839 18.1763 8.50086 18.3921 8.49726ZM7.88753 10.7986C7.10941 10.7986 6.47719 11.5466 6.47719 12.4671C6.47719 13.3877 7.10941 14.1356 7.88753 14.1356C8.66564 14.1356 9.29786 13.3877 9.29786 12.4671C9.29786 11.5466 8.66564 10.7986 7.88753 10.7986ZM14.1125 10.7986C13.3344 10.7986 12.7021 11.5466 12.7021 12.4671C12.7021 13.3877 13.3344 14.1356 14.1125 14.1356C14.8906 14.1356 15.5228 13.3877 15.5228 12.4671C15.5228 11.5466 14.8906 10.7986 14.1125 10.7986ZM7.13372 16.4658C7.62917 17.6776 9.16109 18.8534 11 18.8534C12.8389 18.8534 14.3952 17.6776 14.8906 16.4658C13.9909 17.1526 12.5714 17.6164 11 17.6164C9.42857 17.6164 8.03342 17.1526 7.13372 16.4658Z"/>
</symbol><symbol id="supergym-desktop-footer" viewBox="0 0 106 19"><g fill="none">
<path d="M8.30469 13.6875C8.30469 13.2891 8.25781 12.9375 8.16406 12.6328C8.07031 12.3203 7.90625 12.0391 7.67188 11.7891C7.4375 11.5391 7.10938 11.3008 6.6875 11.0742C6.26562 10.8477 5.73047 10.6172 5.08203 10.3828C4.37891 10.1328 3.74219 9.85547 3.17188 9.55078C2.60156 9.23828 2.11328 8.88281 1.70703 8.48438C1.30859 8.08594 1 7.62891 0.78125 7.11328C0.5625 6.59766 0.453125 6.00781 0.453125 5.34375C0.453125 4.67969 0.566406 4.06641 0.792969 3.50391C1.02734 2.94141 1.35547 2.45312 1.77734 2.03906C2.20703 1.61719 2.72266 1.28906 3.32422 1.05469C3.92578 0.820312 4.59766 0.703125 5.33984 0.703125C6.44922 0.703125 7.38281 0.949219 8.14062 1.44141C8.90625 1.92578 9.48438 2.5625 9.875 3.35156C10.2656 4.13281 10.4609 4.96875 10.4609 5.85938H8.30469C8.30469 5.21875 8.19922 4.65234 7.98828 4.16016C7.78516 3.66016 7.46484 3.26953 7.02734 2.98828C6.59766 2.69922 6.03516 2.55469 5.33984 2.55469C4.71484 2.55469 4.19922 2.67578 3.79297 2.91797C3.39453 3.16016 3.09766 3.48828 2.90234 3.90234C2.71484 4.31641 2.62109 4.78906 2.62109 5.32031C2.62109 5.67969 2.68359 6.00781 2.80859 6.30469C2.93359 6.59375 3.125 6.86328 3.38281 7.11328C3.64844 7.36328 3.97656 7.59375 4.36719 7.80469C4.76562 8.01562 5.23438 8.21875 5.77344 8.41406C6.60938 8.6875 7.32422 8.99219 7.91797 9.32812C8.51172 9.66406 8.99609 10.043 9.37109 10.4648C9.74609 10.8789 10.0195 11.3516 10.1914 11.8828C10.3711 12.4062 10.4609 13 10.4609 13.6641C10.4609 14.3594 10.3438 14.9883 10.1094 15.5508C9.88281 16.1133 9.55078 16.5938 9.11328 16.9922C8.67578 17.3906 8.14844 17.6992 7.53125 17.918C6.91406 18.1289 6.21875 18.2344 5.44531 18.2344C4.77344 18.2344 4.11328 18.125 3.46484 17.9062C2.82422 17.6875 2.24219 17.3594 1.71875 16.9219C1.19531 16.4844 0.777344 15.9453 0.464844 15.3047C0.152344 14.6562 -0.00390625 13.9062 -0.00390625 13.0547H2.15234C2.15234 13.6406 2.23828 14.1445 2.41016 14.5664C2.58203 14.9805 2.82031 15.3242 3.125 15.5977C3.42969 15.8711 3.77734 16.0742 4.16797 16.207C4.56641 16.332 4.99219 16.3945 5.44531 16.3945C6.07031 16.3945 6.59375 16.2852 7.01562 16.0664C7.44531 15.8477 7.76562 15.5352 7.97656 15.1289C8.19531 14.7227 8.30469 14.2422 8.30469 13.6875ZM21.3125 0.9375H23.4688V12.9492C23.4688 14.2305 23.2227 15.2578 22.7305 16.0312C22.2383 16.8047 21.5898 17.3672 20.7852 17.7188C19.9883 18.0625 19.1289 18.2344 18.207 18.2344C17.2227 18.2344 16.3359 18.0625 15.5469 17.7188C14.7578 17.3672 14.1289 16.8047 13.6602 16.0312C13.1992 15.2578 12.9688 14.2305 12.9688 12.9492V0.9375H15.1133V12.9492C15.1133 13.8398 15.2383 14.5352 15.4883 15.0352C15.7461 15.5352 16.1055 15.8867 16.5664 16.0898C17.0352 16.293 17.582 16.3945 18.207 16.3945C18.8398 16.3945 19.3867 16.293 19.8477 16.0898C20.3164 15.8867 20.6758 15.5352 20.9258 15.0352C21.1836 14.5352 21.3125 13.8398 21.3125 12.9492V0.9375ZM32.1992 11.3086H28.4727V9.46875H32.1992C32.9023 9.46875 33.4688 9.32812 33.8984 9.04688C34.3359 8.76562 34.6523 8.375 34.8477 7.875C35.0508 7.375 35.1523 6.80469 35.1523 6.16406C35.1523 5.57812 35.0508 5.02734 34.8477 4.51172C34.6523 3.99609 34.3359 3.58203 33.8984 3.26953C33.4688 2.94922 32.9023 2.78906 32.1992 2.78906H28.918V18H26.7617V0.9375H32.1992C33.3008 0.9375 34.2305 1.16016 34.9883 1.60547C35.7461 2.05078 36.3203 2.66797 36.7109 3.45703C37.1094 4.23828 37.3086 5.13281 37.3086 6.14062C37.3086 7.23438 37.1094 8.16797 36.7109 8.94141C36.3203 9.71484 35.7461 10.3047 34.9883 10.7109C34.2305 11.1094 33.3008 11.3086 32.1992 11.3086ZM49.25 16.1602V18H41.8438V16.1602H49.25ZM42.2305 0.9375V18H40.0742V0.9375H42.2305ZM48.2539 8.27344V10.1133H41.8438V8.27344H48.2539ZM49.1328 0.9375V2.78906H41.8438V0.9375H49.1328ZM52.0156 0.9375H56.7852C57.8945 0.9375 58.8242 1.13281 59.5742 1.52344C60.332 1.91406 60.9023 2.49219 61.2852 3.25781C61.6758 4.01563 61.8711 4.94922 61.8711 6.05859C61.8711 6.83984 61.7422 7.55469 61.4844 8.20312C61.2266 8.84375 60.8516 9.39062 60.3594 9.84375C59.8672 10.2891 59.2695 10.6211 58.5664 10.8398L57.9805 11.0859H53.7266L53.7031 9.24609H56.7617C57.418 9.24609 57.9648 9.10547 58.4023 8.82422C58.8398 8.53516 59.168 8.14844 59.3867 7.66406C59.6055 7.17969 59.7148 6.64453 59.7148 6.05859C59.7148 5.40234 59.6172 4.82812 59.4219 4.33594C59.2266 3.84375 58.9141 3.46484 58.4844 3.19922C58.0625 2.92578 57.4961 2.78906 56.7852 2.78906H54.1719V18H52.0156V0.9375ZM60.207 18L56.8086 10.2656L59.0469 10.2539L62.5156 17.8594V18H60.207ZM75.4414 9.50391V15.8672C75.2539 16.1172 74.9688 16.4297 74.5859 16.8047C74.2109 17.1797 73.6836 17.5117 73.0039 17.8008C72.3242 18.0898 71.4336 18.2344 70.332 18.2344C69.4492 18.2344 68.6406 18.0859 67.9062 17.7891C67.1797 17.4922 66.5508 17.0469 66.0195 16.4531C65.4961 15.8516 65.0898 15.1055 64.8008 14.2148C64.5117 13.3164 64.3672 12.2656 64.3672 11.0625V7.86328C64.3672 6.66797 64.4883 5.62109 64.7305 4.72266C64.9727 3.82422 65.332 3.07813 65.8086 2.48438C66.293 1.89062 66.8906 1.44531 67.6016 1.14844C68.3203 0.851563 69.1562 0.703125 70.1094 0.703125C71.2109 0.703125 72.1484 0.910156 72.9219 1.32422C73.6953 1.73828 74.293 2.33594 74.7148 3.11719C75.1445 3.89844 75.3867 4.83594 75.4414 5.92969H73.2852C73.2305 5.22656 73.082 4.625 72.8398 4.125C72.5977 3.61719 72.2539 3.23047 71.8086 2.96484C71.3633 2.69141 70.7969 2.55469 70.1094 2.55469C69.4531 2.55469 68.8984 2.66406 68.4453 2.88281C67.9922 3.10156 67.6211 3.42969 67.332 3.86719C67.0508 4.30469 66.8438 4.85547 66.7109 5.51953C66.5859 6.18359 66.5234 6.95703 66.5234 7.83984V11.0625C66.5234 11.9688 66.6133 12.7578 66.793 13.4297C66.9727 14.1016 67.2266 14.6562 67.5547 15.0938C67.8906 15.5312 68.293 15.8594 68.7617 16.0781C69.2305 16.2891 69.7578 16.3945 70.3438 16.3945C71.0078 16.3945 71.5312 16.3242 71.9141 16.1836C72.2969 16.043 72.5898 15.8828 72.793 15.7031C73.0039 15.5234 73.1719 15.3789 73.2969 15.2695V11.332H70.168V9.50391H75.4414ZM79.8945 0.9375L83.375 9.50391L86.8672 0.9375H89.3047L84.4531 11.625V18H82.2969V11.625L77.4453 0.9375H79.8945ZM92.2227 0.9375H94.3086L98.7734 14.8477L103.227 0.9375H105.312L99.582 18H97.9414L92.2227 0.9375ZM91.543 0.9375H93.3711L93.6875 11.3438V18H91.543V0.9375ZM104.152 0.9375H105.98V18H103.836V11.3438L104.152 0.9375Z" fill="white"/>
</g></symbol><symbol id="supergym-desktop" viewBox="0 0 119 20"><g fill="none">
<path d="M9.31836 14.1377C9.31836 13.8076 9.28874 13.5072 9.22949 13.2363C9.17025 12.9655 9.04329 12.7158 8.84863 12.4873C8.66243 12.2588 8.38737 12.0303 8.02344 11.8018C7.66797 11.5732 7.20247 11.3363 6.62695 11.0908C5.94141 10.8031 5.27702 10.4984 4.63379 10.1768C3.99056 9.84668 3.41081 9.46582 2.89453 9.03418C2.37826 8.60254 1.96777 8.09473 1.66309 7.51074C1.36686 6.91829 1.21875 6.22428 1.21875 5.42871C1.21875 4.65007 1.3584 3.94336 1.6377 3.30859C1.92546 2.67383 2.33171 2.13216 2.85645 1.68359C3.38118 1.22656 3.99479 0.875326 4.69727 0.629883C5.4082 0.38444 6.19954 0.261719 7.07129 0.261719C8.25618 0.261719 9.28027 0.507161 10.1436 0.998047C11.0153 1.48893 11.6882 2.16178 12.1621 3.0166C12.6445 3.87142 12.8857 4.85319 12.8857 5.96191H9.17871C9.17871 5.43717 9.10254 4.97591 8.9502 4.57812C8.80632 4.17188 8.57357 3.85449 8.25195 3.62598C7.93034 3.39746 7.51562 3.2832 7.00781 3.2832C6.53385 3.2832 6.1403 3.38053 5.82715 3.5752C5.52246 3.76139 5.29395 4.01953 5.1416 4.34961C4.99772 4.67122 4.92578 5.03516 4.92578 5.44141C4.92578 5.74609 4.99772 6.02116 5.1416 6.2666C5.29395 6.50358 5.5013 6.7194 5.76367 6.91406C6.02604 7.10026 6.33496 7.28223 6.69043 7.45996C7.05436 7.6377 7.45215 7.8112 7.88379 7.98047C8.72168 8.31055 9.46224 8.67448 10.1055 9.07227C10.7487 9.46159 11.2861 9.90169 11.7178 10.3926C12.1494 10.875 12.4753 11.4209 12.6953 12.0303C12.9154 12.6396 13.0254 13.3337 13.0254 14.1123C13.0254 14.8825 12.89 15.585 12.6191 16.2197C12.3568 16.846 11.9717 17.3877 11.4639 17.8447C10.9561 18.2933 10.3424 18.6403 9.62305 18.8857C8.91211 19.1312 8.11654 19.2539 7.23633 19.2539C6.38151 19.2539 5.57324 19.1354 4.81152 18.8984C4.0498 18.653 3.37695 18.2848 2.79297 17.7939C2.21745 17.2946 1.76465 16.6641 1.43457 15.9023C1.10449 15.1322 0.939453 14.2223 0.939453 13.1729H4.65918C4.65918 13.7314 4.71419 14.2096 4.82422 14.6074C4.93424 14.9967 5.10352 15.3099 5.33203 15.5469C5.56055 15.7754 5.83984 15.9489 6.16992 16.0674C6.50846 16.1774 6.89355 16.2324 7.3252 16.2324C7.81608 16.2324 8.2054 16.1393 8.49316 15.9531C8.78939 15.7669 9.00098 15.5173 9.12793 15.2041C9.25488 14.891 9.31836 14.5355 9.31836 14.1377ZM23.8418 0.515625H27.5488V13.2109C27.5488 14.6328 27.2865 15.7923 26.7617 16.6895C26.2454 17.5781 25.5303 18.2298 24.6162 18.6445C23.7021 19.0508 22.6569 19.2539 21.4805 19.2539C20.2956 19.2539 19.2419 19.0508 18.3193 18.6445C17.3968 18.2298 16.6774 17.5781 16.1611 16.6895C15.6533 15.7923 15.3994 14.6328 15.3994 13.2109V0.515625H19.1064V13.2109C19.1064 14.015 19.1953 14.6328 19.373 15.0645C19.5592 15.4961 19.8258 15.7923 20.1729 15.9531C20.5283 16.1055 20.9642 16.1816 21.4805 16.1816C22.0052 16.1816 22.4368 16.1055 22.7754 15.9531C23.1224 15.7923 23.3848 15.4961 23.5625 15.0645C23.7487 14.6328 23.8418 14.015 23.8418 13.2109V0.515625ZM36.6895 12.4873H32.9062V9.40234H36.6895C37.2142 9.40234 37.6416 9.28385 37.9717 9.04688C38.3102 8.8099 38.5557 8.48405 38.708 8.06934C38.8604 7.64616 38.9365 7.1722 38.9365 6.64746C38.9365 6.11426 38.8561 5.61914 38.6953 5.16211C38.543 4.69661 38.3018 4.31999 37.9717 4.03223C37.6501 3.74447 37.2227 3.60059 36.6895 3.60059H34.0996V19H30.3926V0.515625H36.6895C37.9336 0.515625 39.0042 0.777995 39.9014 1.30273C40.7985 1.82747 41.484 2.55111 41.958 3.47363C42.4404 4.3877 42.6816 5.43717 42.6816 6.62207C42.6816 7.81543 42.4404 8.85221 41.958 9.73242C41.484 10.6042 40.7985 11.2812 39.9014 11.7637C39.0042 12.2461 37.9336 12.4873 36.6895 12.4873ZM55.7705 15.9277V19H47.7344V15.9277H55.7705ZM48.8896 0.515625V19H45.1699V0.515625H48.8896ZM54.6914 8.00586V10.9893H47.7344V8.00586H54.6914ZM55.7451 0.515625V3.60059H47.7344V0.515625H55.7451ZM57.9541 0.515625H63.8828C65.1185 0.515625 66.1722 0.727214 67.0439 1.15039C67.9157 1.57357 68.5843 2.19987 69.0498 3.0293C69.5153 3.85872 69.748 4.88281 69.748 6.10156C69.748 7.10026 69.6126 7.95508 69.3418 8.66602C69.071 9.36849 68.6859 9.95671 68.1865 10.4307C67.6872 10.8962 67.0905 11.2686 66.3965 11.5479L65.2666 12.2207H60.4551L60.4424 9.13574H63.7812C64.2891 9.13574 64.708 9.02572 65.0381 8.80566C65.3766 8.57715 65.6263 8.25977 65.7871 7.85352C65.9564 7.4388 66.041 6.95638 66.041 6.40625C66.041 5.82227 65.9648 5.32292 65.8125 4.9082C65.6686 4.48503 65.4359 4.16341 65.1143 3.94336C64.8011 3.71484 64.3906 3.60059 63.8828 3.60059H61.6738V19H57.9541V0.515625ZM66.3457 19L62.9561 10.7607L66.8535 10.748L70.3193 18.8223V19H66.3457ZM84.8936 9.28809V16.9053C84.6312 17.1846 84.2461 17.5104 83.7383 17.8828C83.2389 18.2467 82.583 18.5684 81.7705 18.8477C80.9665 19.1185 79.9847 19.2539 78.8252 19.2539C77.8011 19.2539 76.8701 19.0931 76.0322 18.7715C75.2028 18.4499 74.4876 17.9632 73.8867 17.3115C73.2943 16.6514 72.8415 15.8304 72.5283 14.8486C72.2152 13.8584 72.0586 12.6862 72.0586 11.332V8.18359C72.0586 6.84635 72.2067 5.68262 72.5029 4.69238C72.8076 3.69368 73.2477 2.86426 73.8232 2.2041C74.3988 1.54395 75.0843 1.05306 75.8799 0.731445C76.6839 0.409831 77.5895 0.249023 78.5967 0.249023C79.9847 0.249023 81.123 0.481771 82.0117 0.947266C82.9089 1.41276 83.5859 2.10254 84.043 3.0166C84.5085 3.93066 84.7878 5.05208 84.8809 6.38086H81.2881C81.2288 5.60221 81.0977 4.99284 80.8945 4.55273C80.6999 4.11263 80.4248 3.79948 80.0693 3.61328C79.7139 3.41862 79.2526 3.32129 78.6855 3.32129C78.1947 3.32129 77.7673 3.41016 77.4033 3.58789C77.0394 3.75716 76.7347 4.03646 76.4893 4.42578C76.2438 4.8151 76.0618 5.31445 75.9434 5.92383C75.8249 6.5332 75.7656 7.27799 75.7656 8.1582V11.332C75.7656 12.2038 75.8333 12.9486 75.9688 13.5664C76.1042 14.1842 76.3031 14.6878 76.5654 15.0771C76.8363 15.4665 77.1748 15.75 77.5811 15.9277C77.9958 16.097 78.4824 16.1816 79.041 16.1816C79.4896 16.1816 79.8493 16.1351 80.1201 16.042C80.391 15.9489 80.6068 15.8516 80.7676 15.75C80.9368 15.64 81.0765 15.5553 81.1865 15.4961V12.0938H78.5332V9.28809H84.8936ZM90.3145 0.515625L93.1328 8.84375L95.9258 0.515625H99.9756L94.999 12.2842V19H91.2539V12.2842L86.2773 0.515625H90.3145ZM103.01 0.515625H106.272L110.043 13.1602L113.801 0.515625H116.683L111.427 19H108.646L103.01 0.515625ZM101.689 0.515625H104.8L105.282 12.7031V19H101.689V0.515625ZM115.261 0.515625H118.384V19H114.804V12.7031L115.261 0.515625Z" fill="white"/>
</g></symbol><symbol id="supergym-mobile-footer" viewBox="0 0 90 16"><g fill="none">
<path d="M7.75391 11.4062C7.75391 11.0742 7.71484 10.7812 7.63672 10.5273C7.55859 10.2669 7.42188 10.0326 7.22656 9.82422C7.03125 9.61589 6.75781 9.41732 6.40625 9.22852C6.05469 9.03971 5.60872 8.84766 5.06836 8.65234C4.48242 8.44401 3.95182 8.21289 3.47656 7.95898C3.0013 7.69857 2.5944 7.40234 2.25586 7.07031C1.92383 6.73828 1.66667 6.35742 1.48438 5.92773C1.30208 5.49805 1.21094 5.00651 1.21094 4.45312C1.21094 3.89974 1.30534 3.38867 1.49414 2.91992C1.68945 2.45117 1.96289 2.04427 2.31445 1.69922C2.67253 1.34766 3.10221 1.07422 3.60352 0.878906C4.10482 0.683594 4.66471 0.585938 5.2832 0.585938C6.20768 0.585938 6.98568 0.791016 7.61719 1.20117C8.25521 1.60482 8.73698 2.13542 9.0625 2.79297C9.38802 3.44401 9.55078 4.14062 9.55078 4.88281H7.75391C7.75391 4.34896 7.66602 3.87695 7.49023 3.4668C7.32096 3.05013 7.05404 2.72461 6.68945 2.49023C6.33138 2.24935 5.86263 2.12891 5.2832 2.12891C4.76237 2.12891 4.33268 2.22982 3.99414 2.43164C3.66211 2.63346 3.41471 2.9069 3.25195 3.25195C3.0957 3.59701 3.01758 3.99089 3.01758 4.43359C3.01758 4.73307 3.06966 5.00651 3.17383 5.25391C3.27799 5.49479 3.4375 5.7194 3.65234 5.92773C3.8737 6.13607 4.14714 6.32812 4.47266 6.50391C4.80469 6.67969 5.19531 6.84896 5.64453 7.01172C6.34115 7.23958 6.93685 7.49349 7.43164 7.77344C7.92643 8.05339 8.33008 8.36914 8.64258 8.7207C8.95508 9.06576 9.18294 9.45964 9.32617 9.90234C9.47591 10.3385 9.55078 10.8333 9.55078 11.3867C9.55078 11.9661 9.45312 12.4902 9.25781 12.959C9.06901 13.4277 8.79232 13.8281 8.42773 14.1602C8.06315 14.4922 7.6237 14.7493 7.10938 14.9316C6.59505 15.1074 6.01562 15.1953 5.37109 15.1953C4.8112 15.1953 4.26107 15.1042 3.7207 14.9219C3.18685 14.7396 2.70182 14.4661 2.26562 14.1016C1.82943 13.737 1.48112 13.2878 1.2207 12.7539C0.960286 12.2135 0.830078 11.5885 0.830078 10.8789H2.62695C2.62695 11.3672 2.69857 11.7871 2.8418 12.1387C2.98503 12.4837 3.18359 12.7702 3.4375 12.998C3.69141 13.2259 3.98112 13.3952 4.30664 13.5059C4.63867 13.61 4.99349 13.6621 5.37109 13.6621C5.89193 13.6621 6.32812 13.571 6.67969 13.3887C7.03776 13.2064 7.30469 12.946 7.48047 12.6074C7.66276 12.2689 7.75391 11.8685 7.75391 11.4062ZM18.5938 0.78125H20.3906V10.791C20.3906 11.8587 20.1855 12.7148 19.7754 13.3594C19.3652 14.0039 18.8249 14.4727 18.1543 14.7656C17.4902 15.0521 16.7741 15.1953 16.0059 15.1953C15.1855 15.1953 14.4466 15.0521 13.7891 14.7656C13.1315 14.4727 12.6074 14.0039 12.2168 13.3594C11.8327 12.7148 11.6406 11.8587 11.6406 10.791V0.78125H13.4277V10.791C13.4277 11.5332 13.5319 12.1126 13.7402 12.5293C13.9551 12.946 14.2546 13.2389 14.6387 13.4082C15.0293 13.5775 15.485 13.6621 16.0059 13.6621C16.5332 13.6621 16.9889 13.5775 17.373 13.4082C17.7637 13.2389 18.0632 12.946 18.2715 12.5293C18.4863 12.1126 18.5938 11.5332 18.5938 10.791V0.78125ZM27.666 9.42383H24.5605V7.89062H27.666C28.252 7.89062 28.724 7.77344 29.082 7.53906C29.4466 7.30469 29.7103 6.97917 29.873 6.5625C30.0423 6.14583 30.127 5.67057 30.127 5.13672C30.127 4.64844 30.0423 4.18945 29.873 3.75977C29.7103 3.33008 29.4466 2.98503 29.082 2.72461C28.724 2.45768 28.252 2.32422 27.666 2.32422H24.9316V15H23.1348V0.78125H27.666C28.584 0.78125 29.3587 0.966797 29.9902 1.33789C30.6217 1.70898 31.1003 2.22331 31.4258 2.88086C31.7578 3.5319 31.9238 4.27734 31.9238 5.11719C31.9238 6.02865 31.7578 6.80664 31.4258 7.45117C31.1003 8.0957 30.6217 8.58724 29.9902 8.92578C29.3587 9.25781 28.584 9.42383 27.666 9.42383ZM41.875 13.4668V15H35.7031V13.4668H41.875ZM36.0254 0.78125V15H34.2285V0.78125H36.0254ZM41.0449 6.89453V8.42773H35.7031V6.89453H41.0449ZM41.7773 0.78125V2.32422H35.7031V0.78125H41.7773ZM44.1797 0.78125H48.1543C49.0788 0.78125 49.8535 0.94401 50.4785 1.26953C51.11 1.59505 51.5853 2.07682 51.9043 2.71484C52.2298 3.34635 52.3926 4.12435 52.3926 5.04883C52.3926 5.69987 52.2852 6.29557 52.0703 6.83594C51.8555 7.36979 51.543 7.82552 51.1328 8.20312C50.7227 8.57422 50.2246 8.85091 49.6387 9.0332L49.1504 9.23828H45.6055L45.5859 7.70508H48.1348C48.6816 7.70508 49.1374 7.58789 49.502 7.35352C49.8665 7.11263 50.14 6.79036 50.3223 6.38672C50.5046 5.98307 50.5957 5.53711 50.5957 5.04883C50.5957 4.50195 50.5143 4.02344 50.3516 3.61328C50.1888 3.20312 49.9284 2.88737 49.5703 2.66602C49.2188 2.43815 48.7467 2.32422 48.1543 2.32422H45.9766V15H44.1797V0.78125ZM51.0059 15L48.1738 8.55469L50.0391 8.54492L52.9297 14.8828V15H51.0059ZM63.7012 7.91992V13.2227C63.5449 13.431 63.3073 13.6914 62.9883 14.0039C62.6758 14.3164 62.2363 14.5931 61.6699 14.834C61.1035 15.0749 60.3613 15.1953 59.4434 15.1953C58.7077 15.1953 58.0339 15.0716 57.4219 14.8242C56.8164 14.5768 56.2923 14.2057 55.8496 13.7109C55.4134 13.2096 55.0749 12.5879 54.834 11.8457C54.5931 11.097 54.4727 10.2214 54.4727 9.21875V6.55273C54.4727 5.55664 54.5736 4.68424 54.7754 3.93555C54.9772 3.18685 55.2767 2.5651 55.6738 2.07031C56.0775 1.57552 56.5755 1.20443 57.168 0.957031C57.7669 0.709635 58.4635 0.585938 59.2578 0.585938C60.1758 0.585938 60.957 0.758464 61.6016 1.10352C62.2461 1.44857 62.7441 1.94661 63.0957 2.59766C63.4538 3.2487 63.6556 4.02995 63.7012 4.94141H61.9043C61.8587 4.35547 61.735 3.85417 61.5332 3.4375C61.3314 3.01432 61.0449 2.69206 60.6738 2.4707C60.3027 2.24284 59.8307 2.12891 59.2578 2.12891C58.7109 2.12891 58.2487 2.22005 57.8711 2.40234C57.4935 2.58464 57.1842 2.85807 56.9434 3.22266C56.709 3.58724 56.5365 4.04622 56.4258 4.59961C56.3216 5.15299 56.2695 5.79753 56.2695 6.5332V9.21875C56.2695 9.97396 56.3444 10.6315 56.4941 11.1914C56.6439 11.7513 56.8555 12.2135 57.1289 12.5781C57.4089 12.9427 57.7441 13.2161 58.1348 13.3984C58.5254 13.5742 58.9648 13.6621 59.4531 13.6621C60.0065 13.6621 60.4427 13.6035 60.7617 13.4863C61.0807 13.3691 61.3249 13.2357 61.4941 13.0859C61.6699 12.9362 61.8099 12.8158 61.9141 12.7246V9.44336H59.3066V7.91992H63.7012ZM67.4121 0.78125L70.3125 7.91992L73.2227 0.78125H75.2539L71.2109 9.6875V15H69.4141V9.6875L65.3711 0.78125H67.4121ZM77.6855 0.78125H79.4238L83.1445 12.373L86.8555 0.78125H88.5938L83.8184 15H82.4512L77.6855 0.78125ZM77.1191 0.78125H78.6426L78.9062 9.45312V15H77.1191V0.78125ZM87.627 0.78125H89.1504V15H87.3633V9.45312L87.627 0.78125Z" fill="white"/>
</g></symbol><symbol id="supergym-mobile" viewBox="0 0 101 17"><g fill="none">
<path d="M7.88477 11.8857C7.88477 11.6064 7.8597 11.3522 7.80957 11.123C7.75944 10.8939 7.65202 10.6826 7.4873 10.4893C7.32975 10.2959 7.09701 10.1025 6.78906 9.90918C6.48828 9.71582 6.0944 9.5153 5.60742 9.30762C5.02734 9.06413 4.46517 8.80632 3.9209 8.53418C3.37663 8.25488 2.88607 7.93262 2.44922 7.56738C2.01237 7.20215 1.66504 6.77246 1.40723 6.27832C1.15658 5.77702 1.03125 5.18978 1.03125 4.5166C1.03125 3.85775 1.14941 3.25977 1.38574 2.72266C1.62923 2.18555 1.97298 1.72721 2.41699 1.34766C2.861 0.960938 3.38021 0.663737 3.97461 0.456055C4.57617 0.248372 5.24577 0.144531 5.9834 0.144531C6.986 0.144531 7.85254 0.352214 8.58301 0.767578C9.32064 1.18294 9.88997 1.75228 10.291 2.47559C10.6992 3.19889 10.9033 4.02962 10.9033 4.96777H7.7666C7.7666 4.52376 7.70215 4.13346 7.57324 3.79688C7.4515 3.45312 7.25456 3.18457 6.98242 2.99121C6.71029 2.79785 6.35938 2.70117 5.92969 2.70117C5.52865 2.70117 5.19564 2.78353 4.93066 2.94824C4.67285 3.10579 4.47949 3.32422 4.35059 3.60352C4.22884 3.87565 4.16797 4.18359 4.16797 4.52734C4.16797 4.78516 4.22884 5.0179 4.35059 5.22559C4.47949 5.42611 4.65495 5.60872 4.87695 5.77344C5.09896 5.93099 5.36035 6.08496 5.66113 6.23535C5.96908 6.38574 6.30566 6.53255 6.6709 6.67578C7.37988 6.95508 8.00651 7.26302 8.55078 7.59961C9.09505 7.92904 9.5498 8.30143 9.91504 8.7168C10.2803 9.125 10.556 9.58691 10.7422 10.1025C10.9284 10.6182 11.0215 11.2054 11.0215 11.8643C11.0215 12.516 10.9069 13.1104 10.6777 13.6475C10.4557 14.1774 10.1299 14.6357 9.7002 15.0225C9.27051 15.402 8.7513 15.6956 8.14258 15.9033C7.54102 16.111 6.86784 16.2148 6.12305 16.2148C5.39974 16.2148 4.71582 16.1146 4.07129 15.9141C3.42676 15.7064 2.85742 15.3949 2.36328 14.9795C1.8763 14.557 1.49316 14.0234 1.21387 13.3789C0.93457 12.7272 0.794922 11.9574 0.794922 11.0693H3.94238C3.94238 11.542 3.98893 11.9466 4.08203 12.2832C4.17513 12.6126 4.31836 12.8776 4.51172 13.0781C4.70508 13.2715 4.94141 13.4183 5.2207 13.5186C5.50716 13.6117 5.83301 13.6582 6.19824 13.6582C6.61361 13.6582 6.94303 13.5794 7.18652 13.4219C7.43717 13.2643 7.61621 13.0531 7.72363 12.7881C7.83105 12.5231 7.88477 12.2223 7.88477 11.8857ZM20.1738 0.359375H23.3105V11.1016C23.3105 12.3047 23.0885 13.2858 22.6445 14.0449C22.2077 14.7969 21.6025 15.3483 20.8291 15.6992C20.0557 16.043 19.1712 16.2148 18.1758 16.2148C17.1732 16.2148 16.2816 16.043 15.501 15.6992C14.7204 15.3483 14.1117 14.7969 13.6748 14.0449C13.2451 13.2858 13.0303 12.3047 13.0303 11.1016V0.359375H16.167V11.1016C16.167 11.7819 16.2422 12.3047 16.3926 12.6699C16.5501 13.0352 16.7757 13.2858 17.0693 13.4219C17.3701 13.5508 17.7389 13.6152 18.1758 13.6152C18.6198 13.6152 18.985 13.5508 19.2715 13.4219C19.5651 13.2858 19.7871 13.0352 19.9375 12.6699C20.0951 12.3047 20.1738 11.7819 20.1738 11.1016V0.359375ZM31.0449 10.4893H27.8438V7.87891H31.0449C31.4889 7.87891 31.8506 7.77865 32.1299 7.57812C32.4163 7.3776 32.624 7.10189 32.7529 6.75098C32.8818 6.3929 32.9463 5.99186 32.9463 5.54785C32.9463 5.09668 32.8783 4.67773 32.7422 4.29102C32.6133 3.89714 32.4092 3.57845 32.1299 3.33496C31.8577 3.09147 31.4961 2.96973 31.0449 2.96973H28.8535V16H25.7168V0.359375H31.0449C32.0977 0.359375 33.0036 0.58138 33.7627 1.02539C34.5218 1.4694 35.1019 2.08171 35.5029 2.8623C35.9111 3.63574 36.1152 4.52376 36.1152 5.52637C36.1152 6.53613 35.9111 7.41341 35.5029 8.1582C35.1019 8.89583 34.5218 9.46875 33.7627 9.87695C33.0036 10.2852 32.0977 10.4893 31.0449 10.4893ZM47.1904 13.4004V16H40.3906V13.4004H47.1904ZM41.3682 0.359375V16H38.2207V0.359375H41.3682ZM46.2773 6.69727V9.22168H40.3906V6.69727H46.2773ZM47.1689 0.359375V2.96973H40.3906V0.359375H47.1689ZM49.0381 0.359375H54.0547C55.1003 0.359375 55.9919 0.538411 56.7295 0.896484C57.4671 1.25456 58.0329 1.78451 58.4268 2.48633C58.8206 3.18815 59.0176 4.05469 59.0176 5.08594C59.0176 5.93099 58.903 6.6543 58.6738 7.25586C58.4447 7.85026 58.1188 8.34798 57.6963 8.74902C57.2738 9.1429 56.7689 9.45801 56.1816 9.69434L55.2256 10.2637H51.1543L51.1436 7.65332H53.9688C54.3984 7.65332 54.7529 7.56022 55.0322 7.37402C55.3187 7.18066 55.5299 6.91211 55.666 6.56836C55.8092 6.21745 55.8809 5.80924 55.8809 5.34375C55.8809 4.84961 55.8164 4.42708 55.6875 4.07617C55.5658 3.7181 55.3688 3.44596 55.0967 3.25977C54.8317 3.06641 54.4844 2.96973 54.0547 2.96973H52.1855V16H49.0381V0.359375ZM56.1387 16L53.2705 9.02832L56.5684 9.01758L59.501 15.8496V16H56.1387ZM71.833 7.78223V14.2275C71.611 14.4639 71.2852 14.7396 70.8555 15.0547C70.4329 15.3626 69.8779 15.6348 69.1904 15.8711C68.5101 16.1003 67.6794 16.2148 66.6982 16.2148C65.8317 16.2148 65.0439 16.0788 64.335 15.8066C63.6331 15.5345 63.028 15.1227 62.5195 14.5713C62.0182 14.0127 61.6351 13.318 61.3701 12.4873C61.1051 11.6494 60.9727 10.6576 60.9727 9.51172V6.84766C60.9727 5.71615 61.098 4.73145 61.3486 3.89355C61.6064 3.0485 61.9788 2.34668 62.4658 1.78809C62.9528 1.22949 63.5329 0.814128 64.2061 0.541992C64.8864 0.269857 65.6527 0.133789 66.5049 0.133789C67.6794 0.133789 68.6426 0.330729 69.3945 0.724609C70.1536 1.11849 70.7266 1.70215 71.1133 2.47559C71.5072 3.24902 71.7435 4.19792 71.8223 5.32227H68.7822C68.7321 4.66341 68.6211 4.14779 68.4492 3.77539C68.2845 3.40299 68.0518 3.13802 67.751 2.98047C67.4502 2.81576 67.0599 2.7334 66.5801 2.7334C66.1647 2.7334 65.8031 2.80859 65.4951 2.95898C65.1872 3.10221 64.9294 3.33854 64.7217 3.66797C64.514 3.9974 64.36 4.41992 64.2598 4.93555C64.1595 5.45117 64.1094 6.08138 64.1094 6.82617V9.51172C64.1094 10.2493 64.1667 10.8796 64.2812 11.4023C64.3958 11.9251 64.5641 12.3512 64.7861 12.6807C65.0153 13.0101 65.3018 13.25 65.6455 13.4004C65.9964 13.5436 66.4082 13.6152 66.8809 13.6152C67.2604 13.6152 67.5648 13.5758 67.7939 13.4971C68.0231 13.4183 68.2057 13.3359 68.3418 13.25C68.485 13.1569 68.6032 13.0853 68.6963 13.0352V10.1562H66.4512V7.78223H71.833ZM76.4199 0.359375L78.8047 7.40625L81.168 0.359375H84.5947L80.3838 10.3174V16H77.2148V10.3174L73.0039 0.359375H76.4199ZM87.1621 0.359375H89.9229L93.1133 11.0586L96.293 0.359375H98.7314L94.2842 16H91.9316L87.1621 0.359375ZM86.0449 0.359375H88.6768L89.085 10.6719V16H86.0449V0.359375ZM97.5283 0.359375H100.171V16H97.1416V10.6719L97.5283 0.359375Z" fill="white"/>
</g></symbol><symbol id="supergym-tablet-footer" viewBox="0 0 99 17"><g fill="none">
<path d="M8.51855 12.5469C8.51855 11.7663 8.30729 11.1683 7.88477 10.7529C7.46224 10.3376 6.69954 9.93294 5.59668 9.53906C4.49382 9.14518 3.64876 8.7334 3.06152 8.30371C2.48145 7.86686 2.0446 7.37272 1.75098 6.82129C1.46452 6.2627 1.32129 5.62533 1.32129 4.90918C1.32129 3.67025 1.73307 2.64974 2.55664 1.84766C3.38737 1.04557 4.47233 0.644531 5.81152 0.644531C6.72819 0.644531 7.5446 0.852214 8.26074 1.26758C8.97689 1.67578 9.52832 2.24512 9.91504 2.97559C10.3018 3.70605 10.4951 4.50814 10.4951 5.38184H8.51855C8.51855 4.41504 8.28581 3.66667 7.82031 3.13672C7.35482 2.60677 6.68522 2.3418 5.81152 2.3418C5.0166 2.3418 4.40072 2.5638 3.96387 3.00781C3.52702 3.45182 3.30859 4.07487 3.30859 4.87695C3.30859 5.53581 3.54492 6.08724 4.01758 6.53125C4.49023 6.97526 5.2207 7.37272 6.20898 7.72363C7.7487 8.2321 8.84798 8.85872 9.50684 9.60352C10.1729 10.3483 10.5059 11.3223 10.5059 12.5254C10.5059 13.793 10.0941 14.8099 9.27051 15.5762C8.44694 16.3353 7.32617 16.7148 5.9082 16.7148C4.9987 16.7148 4.15723 16.5179 3.38379 16.124C2.61751 15.723 2.01237 15.1644 1.56836 14.4482C1.13151 13.7249 0.913086 12.8978 0.913086 11.9668H2.88965C2.88965 12.9336 3.1582 13.6855 3.69531 14.2227C4.23958 14.7598 4.97721 15.0283 5.9082 15.0283C6.77474 15.0283 7.42643 14.8063 7.86328 14.3623C8.30013 13.9183 8.51855 13.3132 8.51855 12.5469ZM22.4189 0.859375V11.9775C22.4046 13.46 21.9749 14.6201 21.1299 15.458C20.2848 16.2959 19.1068 16.7148 17.5957 16.7148C16.0488 16.7148 14.8672 16.3066 14.0508 15.4902C13.2344 14.6667 12.819 13.4958 12.8047 11.9775V0.859375H14.7598V11.9023C14.7598 12.9551 14.9818 13.7428 15.4258 14.2656C15.877 14.7812 16.6003 15.0391 17.5957 15.0391C18.5983 15.0391 19.3216 14.7812 19.7656 14.2656C20.2168 13.7428 20.4424 12.9551 20.4424 11.9023V0.859375H22.4189ZM27.4141 10.377V16.5H25.4482V0.859375H30.4326C31.8864 0.859375 33.0286 1.29622 33.8594 2.16992C34.6901 3.03646 35.1055 4.19303 35.1055 5.63965C35.1055 7.14355 34.708 8.30371 33.9131 9.12012C33.1253 9.92936 32.0117 10.3483 30.5723 10.377H27.4141ZM27.4141 8.69043H30.4326C31.3063 8.69043 31.9759 8.42904 32.4414 7.90625C32.9069 7.38346 33.1396 6.63509 33.1396 5.66113C33.1396 4.72298 32.8997 3.97103 32.4199 3.40527C31.9401 2.83952 31.2812 2.55664 30.4434 2.55664H27.4141V8.69043ZM45.1494 9.27051H39.6172V14.8135H46.0625V16.5H37.6514V0.859375H45.9551V2.55664H39.6172V7.58398H45.1494V9.27051ZM53.3135 10.1729H50.5635V16.5H48.5869V0.859375H52.9697C54.5023 0.859375 55.6624 1.26042 56.4502 2.0625C57.238 2.85742 57.6318 4.02474 57.6318 5.56445C57.6318 6.53125 57.417 7.3763 56.9873 8.09961C56.5648 8.81576 55.9632 9.35645 55.1826 9.72168L58.2119 16.3711V16.5H56.0957L53.3135 10.1729ZM50.5635 8.48633H52.9482C53.7718 8.48633 54.4271 8.22135 54.9141 7.69141C55.4082 7.16146 55.6553 6.45247 55.6553 5.56445C55.6553 3.55924 54.7458 2.55664 52.9268 2.55664H50.5635V8.48633ZM70.0605 14.5557L69.7168 14.9854C68.7285 16.1383 67.2819 16.7148 65.377 16.7148C63.6868 16.7148 62.3584 16.1562 61.3916 15.0391C60.432 13.9147 59.9414 12.3285 59.9199 10.2803V7.20801C59.9199 5.0166 60.3568 3.37663 61.2305 2.28809C62.1113 1.19238 63.4255 0.644531 65.1729 0.644531C66.6624 0.644531 67.8262 1.0599 68.6641 1.89062C69.5091 2.72135 69.9746 3.90658 70.0605 5.44629H68.0947C68.016 4.47233 67.7438 3.71322 67.2783 3.16895C66.82 2.61751 66.1217 2.3418 65.1836 2.3418C64.0592 2.3418 63.2357 2.71061 62.7129 3.44824C62.1901 4.17871 61.918 5.34961 61.8965 6.96094V10.1514C61.8965 11.7269 62.1973 12.9372 62.7988 13.7822C63.4004 14.6201 64.2633 15.0391 65.3877 15.0391C66.4476 15.0391 67.2533 14.7812 67.8047 14.2656L68.0947 13.9971V10.3877H65.2373V8.71191H70.0605V14.5557ZM77.3438 8.71191L80.5449 0.859375H82.7686L78.3213 10.667V16.5H76.3555V10.667L71.9082 0.859375H74.1426L77.3438 8.71191ZM87.3447 0.859375L91.4268 13.6211L95.5088 0.859375H98.0439V16.5H96.0781V10.4092L96.2607 4.30762L92.168 16.5H90.6641L86.5928 4.35059L86.7754 10.4092V16.5H84.8096V0.859375H87.3447Z" fill="white"/>
</g></symbol><symbol id="supergym-tablet" viewBox="0 0 110 19"><g fill="none">
<path d="M8.60156 13.5117C8.60156 13.207 8.57422 12.9297 8.51953 12.6797C8.46484 12.4297 8.34766 12.1992 8.16797 11.9883C7.99609 11.7773 7.74219 11.5664 7.40625 11.3555C7.07812 11.1445 6.64844 10.9258 6.11719 10.6992C5.48438 10.4336 4.87109 10.1523 4.27734 9.85547C3.68359 9.55078 3.14844 9.19922 2.67188 8.80078C2.19531 8.40234 1.81641 7.93359 1.53516 7.39453C1.26172 6.84766 1.125 6.20703 1.125 5.47266C1.125 4.75391 1.25391 4.10156 1.51172 3.51562C1.77734 2.92969 2.15234 2.42969 2.63672 2.01562C3.12109 1.59375 3.6875 1.26953 4.33594 1.04297C4.99219 0.816406 5.72266 0.703125 6.52734 0.703125C7.62109 0.703125 8.56641 0.929687 9.36328 1.38281C10.168 1.83594 10.7891 2.45703 11.2266 3.24609C11.6719 4.03516 11.8945 4.94141 11.8945 5.96484H8.47266C8.47266 5.48047 8.40234 5.05469 8.26172 4.6875C8.12891 4.3125 7.91406 4.01953 7.61719 3.80859C7.32031 3.59766 6.9375 3.49219 6.46875 3.49219C6.03125 3.49219 5.66797 3.58203 5.37891 3.76172C5.09766 3.93359 4.88672 4.17188 4.74609 4.47656C4.61328 4.77344 4.54688 5.10938 4.54688 5.48438C4.54688 5.76562 4.61328 6.01953 4.74609 6.24609C4.88672 6.46484 5.07812 6.66406 5.32031 6.84375C5.5625 7.01562 5.84766 7.18359 6.17578 7.34766C6.51172 7.51172 6.87891 7.67188 7.27734 7.82812C8.05078 8.13281 8.73438 8.46875 9.32812 8.83594C9.92188 9.19531 10.418 9.60156 10.8164 10.0547C11.2148 10.5 11.5156 11.0039 11.7188 11.5664C11.9219 12.1289 12.0234 12.7695 12.0234 13.4883C12.0234 14.1992 11.8984 14.8477 11.6484 15.4336C11.4062 16.0117 11.0508 16.5117 10.582 16.9336C10.1133 17.3477 9.54688 17.668 8.88281 17.8945C8.22656 18.1211 7.49219 18.2344 6.67969 18.2344C5.89062 18.2344 5.14453 18.125 4.44141 17.9062C3.73828 17.6797 3.11719 17.3398 2.57812 16.8867C2.04688 16.4258 1.62891 15.8438 1.32422 15.1406C1.01953 14.4297 0.867188 13.5898 0.867188 12.6211H4.30078C4.30078 13.1367 4.35156 13.5781 4.45312 13.9453C4.55469 14.3047 4.71094 14.5938 4.92188 14.8125C5.13281 15.0234 5.39062 15.1836 5.69531 15.293C6.00781 15.3945 6.36328 15.4453 6.76172 15.4453C7.21484 15.4453 7.57422 15.3594 7.83984 15.1875C8.11328 15.0156 8.30859 14.7852 8.42578 14.4961C8.54297 14.207 8.60156 13.8789 8.60156 13.5117ZM22.0078 0.9375H25.4297V12.6562C25.4297 13.9688 25.1875 15.0391 24.7031 15.8672C24.2266 16.6875 23.5664 17.2891 22.7227 17.6719C21.8789 18.0469 20.9141 18.2344 19.8281 18.2344C18.7344 18.2344 17.7617 18.0469 16.9102 17.6719C16.0586 17.2891 15.3945 16.6875 14.918 15.8672C14.4492 15.0391 14.2148 13.9688 14.2148 12.6562V0.9375H17.6367V12.6562C17.6367 13.3984 17.7188 13.9688 17.8828 14.3672C18.0547 14.7656 18.3008 15.0391 18.6211 15.1875C18.9492 15.3281 19.3516 15.3984 19.8281 15.3984C20.3125 15.3984 20.7109 15.3281 21.0234 15.1875C21.3438 15.0391 21.5859 14.7656 21.75 14.3672C21.9219 13.9688 22.0078 13.3984 22.0078 12.6562V0.9375ZM33.8672 11.9883H30.375V9.14062H33.8672C34.3516 9.14062 34.7461 9.03125 35.0508 8.8125C35.3633 8.59375 35.5898 8.29297 35.7305 7.91016C35.8711 7.51953 35.9414 7.08203 35.9414 6.59766C35.9414 6.10547 35.8672 5.64844 35.7188 5.22656C35.5781 4.79687 35.3555 4.44922 35.0508 4.18359C34.7539 3.91797 34.3594 3.78516 33.8672 3.78516H31.4766V18H28.0547V0.9375H33.8672C35.0156 0.9375 36.0039 1.17969 36.832 1.66406C37.6602 2.14844 38.293 2.81641 38.7305 3.66797C39.1758 4.51172 39.3984 5.48047 39.3984 6.57422C39.3984 7.67578 39.1758 8.63281 38.7305 9.44531C38.293 10.25 37.6602 10.875 36.832 11.3203C36.0039 11.7656 35.0156 11.9883 33.8672 11.9883ZM51.4805 15.1641V18H44.0625V15.1641H51.4805ZM45.1289 0.9375V18H41.6953V0.9375H45.1289ZM50.4844 7.85156V10.6055H44.0625V7.85156H50.4844ZM51.457 0.9375V3.78516H44.0625V0.9375H51.457ZM53.4961 0.9375H58.9688C60.1094 0.9375 61.082 1.13281 61.8867 1.52344C62.6914 1.91406 63.3086 2.49219 63.7383 3.25781C64.168 4.02344 64.3828 4.96875 64.3828 6.09375C64.3828 7.01562 64.2578 7.80469 64.0078 8.46094C63.7578 9.10938 63.4023 9.65234 62.9414 10.0898C62.4805 10.5195 61.9297 10.8633 61.2891 11.1211L60.2461 11.7422H55.8047L55.793 8.89453H58.875C59.3438 8.89453 59.7305 8.79297 60.0352 8.58984C60.3477 8.37891 60.5781 8.08594 60.7266 7.71094C60.8828 7.32812 60.9609 6.88281 60.9609 6.375C60.9609 5.83594 60.8906 5.375 60.75 4.99219C60.6172 4.60156 60.4023 4.30469 60.1055 4.10156C59.8164 3.89062 59.4375 3.78516 58.9688 3.78516H56.9297V18H53.4961V0.9375ZM61.2422 18L58.1133 10.3945L61.7109 10.3828L64.9102 17.8359V18H61.2422ZM78.3633 9.03516V16.0664C78.1211 16.3242 77.7656 16.625 77.2969 16.9688C76.8359 17.3047 76.2305 17.6016 75.4805 17.8594C74.7383 18.1094 73.832 18.2344 72.7617 18.2344C71.8164 18.2344 70.957 18.0859 70.1836 17.7891C69.418 17.4922 68.7578 17.043 68.2031 16.4414C67.6562 15.832 67.2383 15.0742 66.9492 14.168C66.6602 13.2539 66.5156 12.1719 66.5156 10.9219V8.01562C66.5156 6.78125 66.6523 5.70703 66.9258 4.79297C67.207 3.87109 67.6133 3.10547 68.1445 2.49609C68.6758 1.88672 69.3086 1.43359 70.043 1.13672C70.7852 0.839844 71.6211 0.691406 72.5508 0.691406C73.832 0.691406 74.8828 0.90625 75.7031 1.33594C76.5312 1.76563 77.1562 2.40234 77.5781 3.24609C78.0078 4.08984 78.2656 5.125 78.3516 6.35156H75.0352C74.9805 5.63281 74.8594 5.07031 74.6719 4.66406C74.4922 4.25781 74.2383 3.96875 73.9102 3.79688C73.582 3.61719 73.1562 3.52734 72.6328 3.52734C72.1797 3.52734 71.7852 3.60938 71.4492 3.77344C71.1133 3.92969 70.832 4.1875 70.6055 4.54688C70.3789 4.90625 70.2109 5.36719 70.1016 5.92969C69.9922 6.49219 69.9375 7.17969 69.9375 7.99219V10.9219C69.9375 11.7266 70 12.4141 70.125 12.9844C70.25 13.5547 70.4336 14.0195 70.6758 14.3789C70.9258 14.7383 71.2383 15 71.6133 15.1641C71.9961 15.3203 72.4453 15.3984 72.9609 15.3984C73.375 15.3984 73.707 15.3555 73.957 15.2695C74.207 15.1836 74.4062 15.0938 74.5547 15C74.7109 14.8984 74.8398 14.8203 74.9414 14.7656V11.625H72.4922V9.03516H78.3633ZM83.3672 0.9375L85.9688 8.625L88.5469 0.9375H92.2852L87.6914 11.8008V18H84.2344V11.8008L79.6406 0.9375H83.3672ZM95.0859 0.9375H98.0977L101.578 12.6094L105.047 0.9375H107.707L102.855 18H100.289L95.0859 0.9375ZM93.8672 0.9375H96.7383L97.1836 12.1875V18H93.8672V0.9375ZM106.395 0.9375H109.277V18H105.973V12.1875L106.395 0.9375Z" fill="white"/>
</g></symbol><symbol id="vk" viewBox="0 0 15 15">
<path d="M8.72271 9.05176C9.16539 8.90867 9.73216 9.99638 10.3355 10.4127C10.7884 10.728 11.1352 10.6599 11.1352 10.6599L12.7434 10.6368C12.7434 10.6368 13.5838 10.5849 13.1865 9.9172C13.1536 9.86163 12.9536 9.4222 11.9895 8.51786C10.9815 7.57185 11.1181 7.72512 12.3317 6.08962C13.0712 5.09267 13.3671 4.48376 13.2745 4.22445C13.1856 3.97486 12.6424 4.03969 12.6424 4.03969L10.8305 4.05219C10.6541 4.05265 10.5045 4.10729 10.4365 4.29066C10.4351 4.29252 10.1489 5.06211 9.76735 5.7164C8.96118 7.10046 8.63936 7.17408 8.506 7.08749C8.19992 6.88699 8.27725 6.28317 8.27725 5.85392C8.27725 4.51246 8.47729 3.9531 7.88551 3.80863C7.68779 3.76047 7.54332 3.72898 7.03905 3.72435C6.39449 3.71463 5.84716 3.72435 5.53692 3.8767C5.33086 3.97996 5.17296 4.20639 5.26881 4.21935C5.3892 4.23556 5.65916 4.29344 5.80363 4.4907C5.98932 4.74631 5.98376 5.3191 5.98376 5.3191C5.98376 5.3191 6.0898 6.89857 5.73371 7.09444C5.48922 7.22872 5.1549 6.9546 4.43578 5.69788C4.06858 5.05516 3.79121 4.34484 3.79121 4.34484C3.79121 4.34484 3.7375 4.21287 3.64026 4.14063C3.52449 4.05497 3.36243 4.02765 3.36243 4.02765L1.64265 4.03876C1.64265 4.03876 1.38427 4.04617 1.28935 4.16008C1.20507 4.26103 1.2824 4.4694 1.2824 4.4694C1.2824 4.4694 2.62942 7.65566 4.15471 9.26059C5.55312 10.734 7.14231 10.6363 7.14231 10.6363H7.86236C7.86236 10.6363 8.07953 10.6113 8.19066 10.4918C8.29439 10.3807 8.28976 10.1719 8.28976 10.1719C8.28976 10.1719 8.2754 9.1953 8.72271 9.05176Z"/>
</symbol></svg>